<svg width="24" height="24" viewBox="0 0 24 24" fill="none" xmlns="http://www.w3.org/2000/svg">
<g clip-path="url(#clip0_93_40283)">
<path d="M24 12C24 18.6275 18.6275 24 12 24C5.3725 24 0 18.6275 0 12C0 5.3725 5.3725 0 12 0C18.6275 0 24 5.3725 24 12Z" fill="#673389"/>
<path d="M17.9119 21.074V22.4449C16.1671 23.4348 14.1497 24 12 24C10.7329 24 9.51233 23.8035 8.36572 23.4397C7.56738 23.1865 6.80475 22.8514 6.08807 22.4449V21.074C6.08807 18.7341 7.8902 16.8146 10.1829 16.6295C10.3033 16.6198 10.4247 16.6148 10.5478 16.6148H13.4518C13.7952 16.6148 14.1292 16.6531 14.45 16.7265C16.4326 17.1801 17.9119 18.9545 17.9119 21.074V21.074Z" fill="#17A388"/>
<path d="M17.9119 21.074V22.4449C16.1671 23.4348 14.1497 24 12 24C10.7329 24 9.51233 23.8035 8.36572 23.4397V21.074C8.36572 18.6112 10.3627 16.6148 12.8258 16.6148H13.4518C15.9153 16.6148 17.9119 18.6112 17.9119 21.074V21.074Z" fill="#27BA9E"/>
<path d="M13.9266 16.7157V16.8268C13.9266 17.6766 13.3815 18.4162 12.5695 18.6671C12.3858 18.7244 12.1937 18.7533 11.9998 18.7533C10.9374 18.7533 10.0734 17.8892 10.0734 16.8268V16.628C10.1821 16.6192 10.2918 16.6148 10.403 16.6148H13.0254C13.3354 16.6148 13.6371 16.6496 13.9266 16.7157Z" fill="#F2EFEA"/>
<path d="M7.63531 11.6968C7.63531 12.4334 7.09735 13.0441 6.39276 13.1574C6.31586 13.17 6.23657 13.1765 6.15582 13.1765C5.33844 13.1765 4.67615 12.5142 4.67615 11.6968C4.67615 10.8796 5.33844 10.2173 6.15582 10.2173C6.23657 10.2173 6.31586 10.2237 6.39276 10.2363C7.09735 10.3497 7.63531 10.9603 7.63531 11.6968V11.6968Z" fill="#F6BA97"/>
<path d="M7.63531 11.6968C7.63531 12.4334 7.09735 13.0441 6.39276 13.1574C6.26477 12.6921 6.19647 12.2023 6.19647 11.6968C6.19647 11.1914 6.26477 10.7016 6.39276 10.2363C7.09735 10.3497 7.63531 10.9603 7.63531 11.6968V11.6968Z" fill="#EAA27F"/>
<path d="M6.68463 11.6968C6.68463 11.989 6.44788 12.2258 6.15582 12.2258C5.86377 12.2258 5.62683 11.989 5.62683 11.6968C5.62683 11.4047 5.86377 11.168 6.15582 11.168C6.44788 11.168 6.68463 11.4047 6.68463 11.6968V11.6968Z" fill="#EAA27F"/>
<path d="M16.3643 11.6968C16.3643 12.4334 16.9023 13.0441 17.6069 13.1574C17.684 13.17 17.7631 13.1765 17.8438 13.1765C18.6612 13.1765 19.3235 12.5142 19.3235 11.6968C19.3235 10.8796 18.6612 10.2173 17.8438 10.2173C17.7631 10.2173 17.684 10.2237 17.6069 10.2363C16.9023 10.3497 16.3643 10.9603 16.3643 11.6968V11.6968Z" fill="#F6BA97"/>
<path d="M16.3643 11.6968C16.3643 12.4334 16.9023 13.0441 17.6069 13.1574C17.7349 12.6921 17.8032 12.2023 17.8032 11.6968C17.8032 11.1914 17.7349 10.7016 17.6069 10.2363C16.9023 10.3497 16.3643 10.9603 16.3643 11.6968V11.6968Z" fill="#EAA27F"/>
<path d="M18.3728 11.6968C18.3728 11.989 18.136 12.2258 17.8438 12.2258C17.5518 12.2258 17.315 11.989 17.315 11.6968C17.315 11.4047 17.5518 11.168 17.8438 11.168C18.136 11.168 18.3728 11.4047 18.3728 11.6968V11.6968Z" fill="#EAA27F"/>
<path d="M17.5051 10.9103C17.5051 13.65 15.5037 15.9225 12.8835 16.3445C12.596 16.3916 12.3008 16.4156 11.9998 16.4156C8.95935 16.4156 6.49475 13.951 6.49475 10.9103C6.49475 7.86987 8.95935 5.40527 11.9998 5.40527C12.3008 5.40527 12.596 5.42908 12.8835 5.47632C15.5037 5.89819 17.5051 8.1709 17.5051 10.9103V10.9103Z" fill="#EAA27F"/>
<path d="M13.591 14.8969V16.8495C13.591 17.5644 13.1197 18.1685 12.4704 18.3691C12.3217 18.4153 12.1633 18.4404 11.9996 18.4404C11.1209 18.4404 10.4088 17.7281 10.4088 16.8495V14.8969H13.591Z" fill="#EAA27F"/>
<path d="M13.591 16.7258V16.8495C13.591 17.5644 13.1197 18.1685 12.4704 18.3691C11.8846 18.1891 11.4443 17.6797 11.3628 17.0566C11.4692 17.0632 11.5761 17.0663 11.6834 17.0663C11.9844 17.0663 12.2794 17.0425 12.5669 16.9953C12.9212 16.9384 13.2634 16.8474 13.591 16.7258V16.7258Z" fill="#F6BA97"/>
<path d="M17.5051 10.9103C17.5051 13.65 15.5037 15.9225 12.8835 16.3445C10.2632 15.9225 8.2619 13.65 8.2619 10.9103C8.2619 9.22357 9.02069 7.71368 10.216 6.70367C10.9612 6.07343 11.8768 5.63837 12.8835 5.47632C15.3263 5.86945 17.2317 7.87189 17.478 10.3616C17.4959 10.5421 17.5051 10.7254 17.5051 10.9103V10.9103Z" fill="#F6BA97"/>
<path d="M8.276 10.7701V10.7706C8.28955 11.6082 8.96759 12.2818 9.80511 12.2917C9.84174 12.2922 9.87854 12.2921 9.91516 12.2917C10.7595 12.2802 11.437 11.59 11.437 10.7457V10.7703V10.2805L11.4207 9.67255C11.4185 9.58978 11.3646 9.51746 11.2864 9.49018C10.3546 9.16553 9.33984 9.16773 8.40948 9.49622C8.32983 9.52442 8.276 9.59912 8.276 9.68353V10.7946" fill="#C1DCE5"/>
<path d="M8.521 10.7946H8.03119V9.6837C8.03119 9.49602 8.15039 9.32793 8.32782 9.26531C9.30707 8.91979 10.3865 8.91741 11.367 9.25908C11.5406 9.31951 11.6605 9.4832 11.6653 9.66612L11.6818 10.2804V10.7703H11.192V10.2837L11.1766 9.71154C10.3184 9.41985 9.37793 9.42186 8.52081 9.71685V10.7946H8.521Z" fill="#151A1C"/>
<path d="M12.6107 10.7701V10.7706C12.6242 11.6082 13.3022 12.2818 14.1398 12.2917C14.1764 12.2922 14.2132 12.2921 14.25 12.2917C15.0941 12.2802 15.7716 11.59 15.7716 10.7457V10.7703V10.2805L15.7553 9.67255C15.7531 9.58978 15.6995 9.51746 15.6211 9.49018C14.6893 9.16553 13.6745 9.16773 12.7441 9.49622C12.6645 9.52442 12.6108 9.59912 12.6108 9.68353V10.7946" fill="#C1DCE5"/>
<path d="M12.8557 10.7946H12.3658V9.68371C12.3658 9.49603 12.485 9.32794 12.6627 9.26531C13.6417 8.91961 14.7211 8.91741 15.7017 9.25909C15.8752 9.31951 15.9952 9.48303 16.0001 9.66613L16.0164 10.2805V10.7703H15.5266V10.2837L15.5112 9.71154C14.6532 9.41986 13.7126 9.42187 12.8557 9.71685V10.7946Z" fill="#151A1C"/>
<path d="M17.2385 2.50378C18.5665 3.83185 18.5665 5.98499 17.2385 7.31287C15.9104 8.64093 13.7574 8.64093 12.4294 7.31287L17.2385 2.50378Z" fill="#FFD833"/>
<path d="M12.4294 7.31286H8.25586L7.73895 10.749L6.48761 10.3616L6.65533 6.99462C6.74414 5.21355 8.21759 3.81719 10.0007 3.82378L16.0283 3.84649L16.8252 5.28094" fill="#FFD833"/>
<path d="M12.3221 3.83257C10.6544 3.95177 9.31531 5.29888 9.23053 6.9948L9.21478 7.31304H8.25549L7.73859 10.749L6.48724 10.3616L6.65533 6.9948C6.74396 5.21337 8.21741 3.81737 10.0005 3.82378L12.3221 3.83257Z" fill="#E8C018"/>
<path d="M17.478 10.3616L16.2266 10.749L16.1351 10.1402L16.0611 9.64838L15.7099 7.31305H11.5358L10.1933 6.69196C10.9407 6.06024 11.859 5.62372 12.869 5.46112C14.9443 5.79529 16.6331 7.28705 17.2516 9.25269C17.3002 9.40796 17.3423 9.56616 17.3771 9.72675C17.4232 9.93402 17.4569 10.1461 17.478 10.3616V10.3616Z" fill="#FFD833"/>
<path d="M10.8274 10.5901C10.8274 10.9349 10.548 11.2145 10.203 11.2145C9.85803 11.2145 9.57843 10.9349 9.57843 10.5901C9.57843 10.2451 9.85803 9.96552 10.203 9.96552C10.548 9.96552 10.8274 10.2451 10.8274 10.5901Z" fill="#2F373B"/>
<path d="M14.4214 10.5901C14.4214 10.9349 14.1418 11.2145 13.7968 11.2145C13.4518 11.2145 13.1722 10.9349 13.1722 10.5901C13.1722 10.2451 13.4518 9.96552 13.7968 9.96552C14.1418 9.96552 14.4214 10.2451 14.4214 10.5901Z" fill="#2F373B"/>
<path d="M10.7001 10.4799C10.7001 10.6276 10.5804 10.7474 10.4326 10.7474C10.2849 10.7474 10.1649 10.6276 10.1649 10.4799C10.1649 10.3321 10.2849 10.2122 10.4326 10.2122C10.5804 10.2122 10.7001 10.3321 10.7001 10.4799Z" fill="white"/>
<path d="M14.3247 10.4799C14.3247 10.6276 14.2048 10.7474 14.057 10.7474C13.9092 10.7474 13.7895 10.6276 13.7895 10.4799C13.7895 10.3321 13.9092 10.2122 14.057 10.2122C14.2048 10.2122 14.3247 10.3321 14.3247 10.4799Z" fill="white"/>
<path d="M11.4207 9.67273H12.6108V10.1625H11.4207V9.67273Z" fill="#151A1C"/>
<path d="M17.3771 9.72675L16.1389 10.1387L16.1351 10.1402L15.8416 10.2376L15.6868 9.77289L16.0611 9.64838L16.0649 9.64691L17.2516 9.25269C17.3002 9.40796 17.3423 9.56616 17.3771 9.72675V9.72675Z" fill="#151A1C"/>
<path d="M8.35309 9.77289L8.19891 10.2376L7.86292 10.1259L6.50665 9.66705L6.5321 9.15912L7.93689 9.63428L8.35309 9.77289Z" fill="#151A1C"/>
</g>
<defs>
<clipPath id="clip0_93_40283">
<rect width="24" height="24" fill="white"/>
</clipPath>
</defs>
</svg>
