<svg width="24" height="24" viewBox="0 0 24 24" fill="none" xmlns="http://www.w3.org/2000/svg">
<g clip-path="url(#clip0_93_40143)">
<path d="M17.3119 22.7623C21.2745 20.8027 24 16.7199 24 12C24 5.37258 18.6274 0 12 0C5.37258 0 0 5.37258 0 12C0 16.7199 2.72545 20.8027 6.68808 22.7623H17.3119Z" fill="#1DD882"/>
<path d="M9.58966 6.42288C9.58966 9.22282 8.74146 12.3761 7.69516 12.3761C6.64886 12.3761 5.80066 9.22282 5.80066 6.42288C5.80066 3.62295 6.64886 2.23657 7.69516 2.23657C8.74146 2.23657 9.58966 3.62295 9.58966 6.42288V6.42288Z" fill="#E9EDF5"/>
<path d="M8.7476 6.82909C8.73115 8.3769 8.24379 10.115 7.6654 10.1089C7.08701 10.1027 6.63663 8.35463 6.65309 6.80682C6.66954 5.25901 7.14654 4.49762 7.72493 4.50376C8.30327 4.50995 8.76401 5.28128 8.7476 6.82909V6.82909Z" fill="#CDD2E1"/>
<path d="M14.4103 6.42288C14.4103 9.22282 15.2585 12.3761 16.3048 12.3761C17.3511 12.3761 18.1993 9.22282 18.1993 6.42288C18.1993 3.62295 17.3511 2.23657 16.3048 2.23657C15.2585 2.23662 14.4103 3.62295 14.4103 6.42288V6.42288Z" fill="#CDD2E1"/>
<path d="M15.2524 6.82909C15.2688 8.3769 15.7562 10.115 16.3346 10.1089C16.913 10.1027 17.3633 8.35463 17.3469 6.80682C17.3304 5.25901 16.8534 4.49762 16.275 4.50376C15.6967 4.50995 15.236 5.28128 15.2524 6.82909V6.82909Z" fill="#AFB4C8"/>
<path d="M8.63904 21.7286C8.63904 19.8724 10.1438 18.3676 12 18.3676C13.8562 18.3676 15.361 19.8724 15.361 21.7286V23.5221C16.0403 23.3242 16.695 23.0688 17.3186 22.7599L16.2216 15.4384H7.77841L6.6814 22.7599C7.30507 23.0688 7.95977 23.3242 8.63904 23.5221V21.7286Z" fill="#E9EDF5"/>
<path d="M12 18.3676C13.8562 18.3676 15.361 19.8724 15.361 21.7286V23.5221C16.0402 23.3242 16.6949 23.0688 17.3186 22.7599L16.2216 15.4384H11.9993V18.3677C11.9996 18.3677 11.9998 18.3676 12 18.3676V18.3676Z" fill="#CDD2E1"/>
<path d="M17.8848 13.4613C17.8848 16.3227 15.2501 17.3758 12 17.3758C8.75 17.3758 6.1153 16.3227 6.1153 13.4613C6.1153 10.6 8.75 7.30188 12 7.30188C15.2501 7.30188 17.8848 10.6001 17.8848 13.4613Z" fill="white"/>
<path d="M12 7.30188C11.9998 7.30188 11.9996 7.30188 11.9993 7.30188V17.3758H12C15.25 17.3758 17.8847 16.3226 17.8847 13.4613C17.8847 10.6001 15.25 7.30188 12 7.30188Z" fill="#E9EDF5"/>
<path d="M13.0276 13.6902C12.625 13.6902 11.375 13.6902 10.9724 13.6902C10.1779 13.6902 9.53381 14.3343 9.53381 15.1288C9.53381 15.9233 10.1779 16.5674 10.9724 16.5674C11.375 16.5674 11.7382 16.4027 11.9993 16.1362C12.2604 16.4027 12.625 16.5674 13.0276 16.5674C13.8221 16.5674 14.4662 15.9233 14.4662 15.1288C14.4662 14.3342 13.8221 13.6902 13.0276 13.6902Z" fill="#E9EDF5"/>
<path d="M13.0276 13.6902C12.8262 13.6902 12.4127 13.6902 11.9993 13.6902V16.1362C11.9996 16.136 11.9991 16.1365 11.9993 16.1362C12.2604 16.4027 12.625 16.5674 13.0276 16.5674C13.8221 16.5674 14.4662 15.9233 14.4662 15.1288C14.4662 14.3342 13.8221 13.6902 13.0276 13.6902Z" fill="#CDD2E1"/>
<path d="M13.2365 14.0242C13.2365 14.5751 12.6829 15.0217 12 15.0217C11.3171 15.0217 10.7635 14.5751 10.7635 14.0242C10.7635 13.4733 11.3171 13.4288 12 13.4288C12.6829 13.4288 13.2365 13.4733 13.2365 14.0242Z" fill="#414952"/>
<path d="M12 13.4288C11.9998 13.4288 11.9996 13.4288 11.9993 13.4288V15.0217H12C12.6829 15.0217 13.2365 14.5751 13.2365 14.0241C13.2365 13.4732 12.6829 13.4288 12 13.4288V13.4288Z" fill="#23272B"/>
<path d="M9.29625 12.1575C9.36733 11.7163 9.06728 11.301 8.62608 11.2299C8.18488 11.1589 7.76959 11.4589 7.69852 11.9001C7.62744 12.3413 7.92749 12.7566 8.36869 12.8277C8.80989 12.8987 9.22518 12.5987 9.29625 12.1575Z" fill="#3C4149"/>
<path d="M16.2883 12.1591C16.3594 11.7179 16.0593 11.3027 15.6181 11.2316C15.1769 11.1605 14.7617 11.4606 14.6906 11.9018C14.6195 12.343 14.9196 12.7582 15.3608 12.8293C15.802 12.9004 16.2172 12.6003 16.2883 12.1591Z" fill="#333940"/>
<path d="M12 18.3207C10.1438 18.3207 8.63904 19.8255 8.63904 21.6817V23.5229C9.70549 23.8335 10.8333 24 12 24C13.1667 24 14.2946 23.8335 15.361 23.5229V21.6817C15.361 19.8255 13.8562 18.3207 12 18.3207V18.3207Z" fill="white"/>
<path d="M12 18.3207C11.9998 18.3207 11.9996 18.3207 11.9993 18.3207V24H12C13.1667 24 14.2945 23.8335 15.361 23.5229V21.6817C15.361 19.8255 13.8562 18.3207 12 18.3207V18.3207Z" fill="#E9EDF5"/>
</g>
<defs>
<clipPath id="clip0_93_40143">
<rect width="24" height="24" fill="white"/>
</clipPath>
</defs>
</svg>
