<svg width="24" height="24" viewBox="0 0 24 24" fill="none" xmlns="http://www.w3.org/2000/svg">
<g clip-path="url(#clip0_93_40189)">
<path d="M23.2383 11.9883C23.2383 18.2016 18.2016 23.2383 11.9883 23.2383C5.77496 23.2383 0.738281 18.2016 0.738281 11.9883C0.738281 5.77496 5.77496 0.738281 11.9883 0.738281C18.2016 0.738281 23.2383 5.77496 23.2383 11.9883Z" fill="#56AAFE"/>
<path d="M15.7574 22.5909C14.5794 23.0102 13.3101 23.2383 11.9883 23.2383C10.6254 23.2383 9.31915 22.9958 8.11011 22.5515L8.60188 13.5092H15.2628L15.7574 22.5909Z" fill="#C55835"/>
<path d="M15.7574 22.5909C14.5794 23.0102 13.3101 23.2383 11.9883 23.2383V13.5092H15.2628L15.7574 22.5909Z" fill="#A63914"/>
<path d="M11.9883 11.0614V12.0582H8.82684C8.26173 12.0582 7.74057 11.8512 7.33943 11.5064C7.22435 11.4074 7.11861 11.2972 7.02509 11.1767H6.31303C5.19765 11.1767 4.29347 10.2724 4.29347 9.1571C4.29347 8.91142 4.49274 8.71216 4.73842 8.71216H4.84512C5.09081 8.71216 5.29007 8.91142 5.29007 9.1571C5.29007 9.72208 5.74806 10.1799 6.31303 10.1799H6.58151C6.57314 10.1328 6.56545 10.0854 6.56023 10.0375L6.19988 6.91013C6.12517 6.2618 5.57613 5.77222 4.92326 5.77222H4.58406C4.30872 5.77222 4.08569 5.54919 4.08569 5.27412C4.08569 4.99878 4.30872 4.77576 4.58406 4.77576H4.92326C6.08287 4.77576 7.05695 5.64423 7.19002 6.79614L7.31897 7.91785C7.74496 7.91125 8.0898 7.56354 8.0898 7.13617V6.37015C8.0898 6.09494 8.31282 5.87192 8.58817 5.87192C8.86337 5.87192 9.08653 6.09494 9.08653 6.37015V7.13617C9.08653 8.0744 8.35594 8.84509 7.43364 8.90991L7.55037 9.9234C7.62508 10.5723 8.17412 11.0614 8.82684 11.0614H11.9883Z" fill="#323B5A"/>
<path d="M11.9883 11.0614V11.5598H8.82684C7.92088 11.5598 7.15912 10.8807 7.05544 9.98067L6.87499 8.41718V8.41663L6.69453 6.85327C6.59099 5.95335 5.82909 5.27412 4.92326 5.27412H4.08569C4.08569 4.99892 4.30872 4.77576 4.58406 4.77576H4.9234C6.08287 4.77576 7.05695 5.64436 7.19002 6.79642L7.31911 7.91798C7.7451 7.91153 8.0898 7.56368 8.0898 7.13617V6.37029C8.0898 6.09521 8.3131 5.87192 8.58817 5.87192V7.13617C8.58817 7.81979 8.05217 8.37872 7.37651 8.41484L7.43378 8.91005L7.55037 9.92354C7.55229 9.9429 7.55531 9.96185 7.5582 9.9808C7.65804 10.6007 8.19362 11.0614 8.82698 11.0614H11.9883Z" fill="#20273A"/>
<path d="M6.73105 10.6783C6.80768 10.8578 6.90697 11.0253 7.02507 11.1767H6.31302C5.19749 11.1767 4.29346 10.2725 4.29346 9.1571C4.29346 8.91142 4.49272 8.71216 4.7384 8.71216H4.79169V9.1571C4.79169 9.99728 5.4727 10.6783 6.31302 10.6783H6.73105Z" fill="#20273A"/>
<path d="M11.9883 11.0614V11.5598H8.82684C7.92088 11.5598 7.15912 10.8807 7.05544 9.98067L6.87499 8.41718V8.41663L6.69453 6.85327C6.59099 5.95335 5.82909 5.27412 4.92326 5.27412H4.08569C4.08569 4.99892 4.30872 4.77576 4.58406 4.77576H4.9234C6.08287 4.77576 7.05695 5.64436 7.19002 6.79642L7.37651 8.41484L7.43364 8.91005L7.55037 9.92354C7.55229 9.9429 7.55518 9.96185 7.5582 9.9808C7.65804 10.6007 8.19362 11.0614 8.82684 11.0614H11.9883Z" fill="#20273A"/>
<path d="M11.9883 11.0614V12.0582H15.1497C15.7148 12.0582 16.236 11.8512 16.6371 11.5064C16.7522 11.4074 16.858 11.2972 16.9515 11.1767H17.6635C18.7789 11.1767 19.6831 10.2724 19.6831 9.1571C19.6831 8.91142 19.4838 8.71216 19.2382 8.71216H19.1315C18.8858 8.71216 18.6865 8.91142 18.6865 9.1571C18.6865 9.72208 18.2285 10.1799 17.6635 10.1799H17.3951C17.4034 10.1328 17.4111 10.0854 17.4164 10.0375L17.7767 6.91013C17.8514 6.2618 18.4005 5.77222 19.0533 5.77222H19.3925C19.6679 5.77222 19.8909 5.54919 19.8909 5.27412C19.8909 4.99878 19.6679 4.77576 19.3925 4.77576H19.0533C17.8937 4.77576 16.9196 5.64423 16.7866 6.79614L16.6576 7.91785C16.2316 7.91125 15.8868 7.56354 15.8868 7.13617V6.37015C15.8868 6.09494 15.6638 5.87192 15.3884 5.87192C15.1132 5.87192 14.89 6.09494 14.89 6.37015V7.13617C14.89 8.0744 15.6206 8.84509 16.5429 8.90991L16.4262 9.9234C16.3515 10.5723 15.8025 11.0614 15.1497 11.0614H11.9883Z" fill="#323B5A"/>
<path d="M11.9883 11.0614V11.5598H15.1497C16.0557 11.5598 16.8175 10.8807 16.9211 9.98067L17.1016 8.41718V8.41663L17.282 6.85327C17.3856 5.95335 18.1475 5.27412 19.0533 5.27412H19.8909C19.8909 4.99892 19.6679 4.77576 19.3925 4.77576H19.0532C17.8937 4.77576 16.9196 5.64436 16.7866 6.79642L16.6575 7.91798C16.2315 7.91153 15.8868 7.56368 15.8868 7.13617V6.37029C15.8868 6.09521 15.6635 5.87192 15.3884 5.87192V7.13617C15.3884 7.81979 15.9244 8.37872 16.6001 8.41484L16.5428 8.91005L16.4262 9.92354C16.4243 9.9429 16.4213 9.96185 16.4184 9.9808C16.3185 10.6007 15.783 11.0614 15.1496 11.0614H11.9883Z" fill="#20273A"/>
<path d="M17.2455 10.6783C17.1689 10.8578 17.0696 11.0253 16.9515 11.1767H17.6635C18.7791 11.1767 19.6831 10.2725 19.6831 9.1571C19.6831 8.91142 19.4838 8.71216 19.2381 8.71216H19.1849V9.1571C19.1849 9.99728 18.5038 10.6783 17.6635 10.6783H17.2455Z" fill="#20273A"/>
<path d="M11.9883 11.0614V11.5598H15.1497C16.0557 11.5598 16.8175 10.8807 16.9211 9.98067L17.1016 8.41718V8.41663L17.282 6.85327C17.3856 5.95335 18.1475 5.27412 19.0533 5.27412H19.8909C19.8909 4.99892 19.6679 4.77576 19.3925 4.77576H19.0532C17.8937 4.77576 16.9196 5.64436 16.7866 6.79642L16.6001 8.41484L16.5429 8.91005L16.4262 9.92354C16.4243 9.9429 16.4214 9.96185 16.4184 9.9808C16.3185 10.6007 15.783 11.0614 15.1497 11.0614H11.9883Z" fill="#20273A"/>
<path d="M11.9883 12.4056V14.2767H9.38617C8.05682 14.2767 6.78227 13.7486 5.84267 12.8088L5.43933 12.4056H11.9883Z" fill="#FFC5CC"/>
<path d="M11.9883 12.4056V13.5094H8.91788C7.67725 13.5094 6.47589 13.1192 5.47943 12.4056H11.9883Z" fill="#ED771B"/>
<path d="M18.5372 12.4056L18.134 12.8088C17.1943 13.7486 15.9197 14.2767 14.5908 14.2767H11.9883V12.4056H18.5372Z" fill="#FFA9B8"/>
<path d="M18.4978 12.4056C17.5012 13.1187 16.3004 13.5094 15.0587 13.5094H11.9888V12.4056H18.4978Z" fill="#C55835"/>
<path d="M15.3891 12.698V12.7208C15.3891 12.9839 15.3846 13.2465 15.375 13.509C15.3192 15.1051 15.093 16.6911 14.7008 18.2402L14.3497 19.6268C14.213 20.1676 13.9011 20.627 13.4846 20.9515C13.068 21.2757 12.5458 21.4651 11.9883 21.4651C10.8737 21.4651 9.90102 20.7081 9.62691 19.6268L9.27576 18.2402C9.04683 17.3383 8.87558 16.4234 8.76036 15.5017C8.6781 14.8405 8.62537 14.1758 8.60188 13.509C8.59241 13.2465 8.58801 12.9834 8.58801 12.7208V12.698C8.59543 11.5777 9.51581 10.6783 10.6359 10.6783H13.341C14.4613 10.6783 15.3815 11.5777 15.3891 12.698V12.698Z" fill="#ED771B"/>
<path d="M11.9883 10.6783V21.4651C12.5458 21.4651 13.068 21.2757 13.4846 20.9515C13.9013 20.627 14.2132 20.1676 14.3497 19.6268L14.7011 18.2402C15.1578 16.4361 15.3891 14.5819 15.3891 12.7209C15.3891 12.7132 15.3891 12.7054 15.3891 12.698C15.3815 11.5778 14.461 10.6783 13.3411 10.6783H11.9883Z" fill="#C55835"/>
<path d="M15.3891 12.698V12.7208C15.3891 12.7864 15.3885 12.8522 15.388 12.9181C15.3875 12.9839 15.3865 13.0497 15.3855 13.1149C15.3846 13.1808 15.3831 13.2465 15.381 13.3123C15.3796 13.378 15.3776 13.4433 15.375 13.509H14.7328C13.5056 13.509 12.511 14.5036 12.511 15.7308V17.0578H11.4844V15.7308C11.4844 14.5036 10.49 13.509 9.26257 13.509H8.60188C8.59241 13.2465 8.58801 12.9834 8.58801 12.7208V12.698C8.59557 11.5777 9.51581 10.6783 10.6359 10.6783H13.3411C14.4613 10.6783 15.3815 11.5777 15.3891 12.698V12.698Z" fill="#C55835"/>
<path d="M15.3891 12.698V12.7208C15.3891 12.7864 15.3885 12.8522 15.388 12.9181C15.3875 12.9839 15.3865 13.0497 15.3855 13.1149C15.3846 13.1808 15.3831 13.2465 15.381 13.3123C15.3796 13.378 15.3776 13.4433 15.375 13.509H14.7328C13.5056 13.509 12.511 14.5036 12.511 15.7308V17.0578H11.9883V10.6783H13.3411C14.4613 10.6783 15.3815 11.5777 15.3891 12.698V12.698Z" fill="#A63914"/>
<path d="M13.9445 19.4973V19.5087C13.9445 20.5722 13.0974 21.4362 12.0406 21.4645C12.0232 21.4651 12.0059 21.4651 11.9883 21.4651C11.939 21.4651 11.8886 21.4632 11.8383 21.4596C10.8745 21.3872 10.0999 20.605 10.0366 19.6408C10.033 19.5915 10.0315 19.5422 10.032 19.4944C10.0341 19.1997 10.1651 18.9363 10.3704 18.7543C10.887 18.2965 11.2846 17.7193 11.4844 17.0578L11.5255 16.9217C11.5876 16.7165 11.7746 16.5753 11.9883 16.5725C11.9909 16.5721 11.9932 16.5721 11.9958 16.5721C12.1034 16.5721 12.2046 16.6068 12.2868 16.6676C12.3695 16.7283 12.4327 16.8146 12.4647 16.9172L12.5244 17.1086C12.7202 17.7384 13.078 18.3124 13.5839 18.7354C13.8025 18.919 13.943 19.1913 13.9445 19.4973V19.4973Z" fill="white"/>
<path d="M13.9445 19.4973V19.5087C13.9445 20.5722 13.0974 21.4362 12.0406 21.4645C12.0232 21.4651 12.0059 21.4651 11.9883 21.4651V16.5725C11.9909 16.5721 11.9932 16.5721 11.9958 16.5721C12.1034 16.5721 12.2046 16.6068 12.2868 16.6676C12.3695 16.7283 12.4327 16.8147 12.4647 16.9173L12.5244 17.1086C12.7202 17.7384 13.078 18.3124 13.5839 18.7354C13.8025 18.919 13.943 19.1913 13.9445 19.4973V19.4973Z" fill="#D0F6FF"/>
<path d="M11.7189 19.3131H12.2578V21.4651H11.7189V19.3131Z" fill="#323B5A"/>
<path d="M12.2577 19.3131V21.4368C12.1697 21.4552 12.08 21.4651 11.9883 21.4651V19.3131H12.2577Z" fill="#20273A"/>
<path d="M12.6541 19.6464C12.4784 19.8065 12.245 19.9042 11.9883 19.9042C11.7318 19.9042 11.4983 19.8065 11.3225 19.6464C11.0395 19.3884 11.2246 18.9164 11.6079 18.9164H12.3688C12.7521 18.9164 12.9372 19.3884 12.6541 19.6464Z" fill="#474F6F"/>
<path d="M12.6541 19.6464C12.4784 19.8065 12.2449 19.9042 11.9883 19.9042V18.9164H12.3688C12.7521 18.9164 12.9372 19.3884 12.6541 19.6464Z" fill="#323B5A"/>
<path d="M11.0023 15.622C10.7279 15.7798 10.3755 15.7733 10.1003 15.5789C9.8252 15.3844 9.70119 15.0546 9.75832 14.7431C10.0322 14.5859 10.3851 14.5919 10.6603 14.7862C10.9355 14.9807 11.0588 15.3114 11.0023 15.622Z" fill="#323B5A"/>
<path d="M13.1152 15.622C13.3896 15.7798 13.742 15.7733 14.0172 15.5789C14.2924 15.3844 14.4163 15.0546 14.3591 14.7431C14.0853 14.5859 13.7324 14.5919 13.4572 14.7862C13.1819 14.9807 13.0586 15.3114 13.1152 15.622Z" fill="#20273A"/>
</g>
<defs>
<clipPath id="clip0_93_40189">
<rect width="24" height="24" fill="white"/>
</clipPath>
</defs>
</svg>
