<svg width="24" height="24" viewBox="0 0 24 24" fill="none" xmlns="http://www.w3.org/2000/svg">
<g clip-path="url(#clip0_93_40229)">
<path d="M24 12C24 18.6275 18.6275 24 12 24C5.3725 24 0 18.6275 0 12C0 5.3725 5.3725 0 12 0C18.6275 0 24 5.3725 24 12Z" fill="#FFE05C"/>
<path d="M12.7868 5.10662C12.5649 5.3637 12.3034 5.61492 12.0002 5.85589L7.40588 8.65612C5.22968 10.2631 2.52905 7.7882 2.52905 7.7882C2.52905 7.7882 5.46716 8.77129 5.46716 5.29027C5.46716 0.882558 7.76587 -1.05938e-05 10.8148 0.0576676C13.6267 0.111684 14.7504 2.83483 12.7868 5.10662Z" fill="#151A1C"/>
<path d="M17.9119 21.074V22.4449C17.207 22.8441 16.4581 23.1751 15.6735 23.4265C15.5922 23.4529 15.5109 23.478 15.4286 23.5023C15.1234 23.5935 14.8129 23.6728 14.4979 23.7389C14.3599 23.7684 14.2213 23.7953 14.0815 23.8193C13.4052 23.9383 12.7097 24 12 24C11.2903 24 10.5948 23.9383 9.91846 23.8198C9.77875 23.7958 9.64014 23.7687 9.50208 23.7394C9.13623 23.662 8.77716 23.5681 8.4245 23.4584C8.40491 23.452 8.38531 23.4461 8.36572 23.4397C8.35254 23.4357 8.33972 23.4313 8.32654 23.4269C7.5423 23.1757 6.79303 22.8446 6.08807 22.4449V21.074C6.08807 19.42 6.9884 17.976 8.32654 17.2066C8.68945 16.9973 9.08423 16.8382 9.50208 16.7382C9.7229 16.6849 9.95013 16.6481 10.1829 16.6296C10.3033 16.6198 10.4247 16.6148 10.5478 16.6148H13.4518C13.7952 16.6148 14.1292 16.6531 14.45 16.7265C14.4661 16.7305 14.4824 16.7338 14.4979 16.7379C14.9158 16.8382 15.3105 16.9973 15.6735 17.2066C17.011 17.9766 17.9119 19.4203 17.9119 21.074V21.074Z" fill="#0C85A5"/>
<path d="M17.9119 21.074V22.4449C16.2513 23.3873 14.3438 23.9447 12.31 23.9962C12.2067 23.9985 12.1038 24 12 24C11.8962 24 11.7929 23.9985 11.69 23.9956C10.5335 23.9667 9.41821 23.7737 8.36572 23.4397V21.074C8.36572 18.6112 10.3627 16.6148 12.8258 16.6148H13.4518C15.9153 16.6148 17.9119 18.6112 17.9119 21.074Z" fill="#1DA2DD"/>
<path d="M14.0083 18.4296C14.0083 19.4703 13.2164 20.3265 12.202 20.4278C12.1359 20.4342 12.0683 20.4377 12.0002 20.4377C11.9326 20.4377 11.8654 20.4342 11.7993 20.4278C10.7845 20.3269 9.99207 19.4709 9.99207 18.4296C9.99207 17.3207 10.8913 16.4213 12.0002 16.4213C13.1091 16.4213 14.0083 17.3207 14.0083 18.4296V18.4296Z" fill="#F2EFEA"/>
<path d="M11.9996 18.4404L9.99207 19.556L9.38123 16.7153L10.6287 15.9805" fill="#D8D4CE"/>
<path d="M11.9996 18.4404L14.0072 19.556L14.618 16.7153L13.3705 15.9805" fill="#D8D4CE"/>
<path d="M13.5908 14.8969V16.8495C13.5908 17.5644 13.1195 18.1686 12.4702 18.3693C12.3217 18.4155 12.1633 18.4404 11.9995 18.4404C11.1209 18.4404 10.4086 17.7283 10.4086 16.8495V14.8969H13.5908Z" fill="#EAA27F"/>
<path d="M13.5908 16.726V16.8495C13.5908 17.5644 13.1195 18.1686 12.4702 18.3693C11.8846 18.1893 11.4441 17.6799 11.3628 17.0568C11.469 17.0632 11.5759 17.0665 11.6832 17.0665C11.9843 17.0665 12.2794 17.0427 12.5669 16.9955C12.921 16.9385 13.2632 16.8474 13.5908 16.726V16.726Z" fill="#F6BA97"/>
<path d="M7.56335 11.697C7.56335 12.4334 7.02539 13.0443 6.3208 13.1576C6.2439 13.17 6.16461 13.1765 6.08386 13.1765C5.26648 13.1765 4.60419 12.5143 4.60419 11.697C4.60419 10.8796 5.26648 10.2173 6.08386 10.2173C6.16461 10.2173 6.2439 10.2239 6.3208 10.2363C7.02539 10.3497 7.56335 10.9603 7.56335 11.697V11.697Z" fill="#F6BA97"/>
<path d="M7.56335 11.697C7.56335 12.4334 7.02539 13.0443 6.3208 13.1576C6.19281 12.6921 6.12451 12.2023 6.12451 11.697C6.12451 11.1914 6.19281 10.7016 6.3208 10.2363C7.02539 10.3497 7.56335 10.9603 7.56335 11.697Z" fill="#EAA27F"/>
<path d="M6.61267 11.697C6.61267 11.989 6.37592 12.2258 6.08386 12.2258C5.79181 12.2258 5.55505 11.989 5.55505 11.697C5.55505 11.4049 5.79181 11.1682 6.08386 11.1682C6.37592 11.1682 6.61267 11.4049 6.61267 11.697V11.697Z" fill="#EAA27F"/>
<path d="M16.4361 11.697C16.4361 12.4334 16.9742 13.0443 17.6788 13.1576C17.7557 13.17 17.835 13.1765 17.9158 13.1765C18.7332 13.1765 19.3954 12.5143 19.3954 11.697C19.3954 10.8796 18.7332 10.2173 17.9158 10.2173C17.835 10.2173 17.7557 10.2239 17.6788 10.2363C16.9742 10.3497 16.4361 10.9603 16.4361 11.697V11.697Z" fill="#F6BA97"/>
<path d="M16.4361 11.697C16.4361 12.4334 16.9742 13.0443 17.6788 13.1576C17.8066 12.6921 17.8751 12.2023 17.8751 11.697C17.8751 11.1914 17.8068 10.7016 17.6788 10.2363C16.9742 10.3497 16.4361 10.9603 16.4361 11.697V11.697Z" fill="#EAA27F"/>
<path d="M18.4446 11.697C18.4446 11.989 18.2078 12.2258 17.9158 12.2258C17.6237 12.2258 17.387 11.989 17.387 11.697C17.387 11.4049 17.6237 11.1682 17.9158 11.1682C18.2078 11.1682 18.4446 11.4049 18.4446 11.697V11.697Z" fill="#EAA27F"/>
<path d="M17.5049 8.81433V10.9107C17.5049 13.6501 15.5037 15.9227 12.8833 16.3444C12.8745 16.3458 12.8652 16.3473 12.8564 16.3489C12.5777 16.3934 12.2915 16.4154 11.9996 16.4154C8.95953 16.4154 6.49475 13.9508 6.49475 10.9107V8.81433C6.49475 8.17419 6.60406 7.55896 6.80585 6.9873C7.55859 4.84497 9.60022 3.30908 11.9996 3.30908H12.0002C12.2915 3.30908 12.5781 3.3316 12.8573 3.37555C15.4904 3.78699 17.5049 6.06555 17.5049 8.81433V8.81433Z" fill="#EAA27F"/>
<path d="M17.5049 8.81433V10.9107C17.5049 13.6501 15.5035 15.9229 12.8831 16.3445C12.8743 16.346 12.865 16.3475 12.8562 16.3489C10.223 15.9375 8.20898 13.6589 8.20898 10.9107V8.81433C8.20898 6.06555 10.2235 3.78717 12.8571 3.37573C15.4904 3.78717 17.5049 6.06555 17.5049 8.81433V8.81433Z" fill="#F6BA97"/>
<path d="M15.7467 12.3561C15.7467 12.7348 15.4396 13.0419 15.061 13.0419C14.6823 13.0419 14.3752 12.7348 14.3752 12.3561C14.3752 11.9773 14.6823 11.6704 15.061 11.6704C15.4396 11.6704 15.7467 11.9773 15.7467 12.3561V12.3561Z" fill="#EAA27F"/>
<path d="M9.62421 12.3561C9.62421 12.7348 9.31732 13.0419 8.93848 13.0419C8.55981 13.0419 8.25275 12.7348 8.25275 12.3561C8.25275 11.9773 8.55981 11.6704 8.93848 11.6704C9.31732 11.6704 9.62421 11.9773 9.62421 12.3561V12.3561Z" fill="#EAA27F"/>
<path d="M14.9561 10.4458C14.9561 9.9408 14.5468 9.53156 14.0418 9.53156C13.5368 9.53156 13.1274 9.9408 13.1274 10.4458" fill="#EAA27F"/>
<path d="M10.8724 10.4458C10.8724 9.9408 10.4632 9.53156 9.95819 9.53156C9.45319 9.53156 9.04376 9.9408 9.04376 10.4458" fill="#EAA27F"/>
<path d="M11.3904 10.8347C11.3904 11.8392 10.5764 12.6533 9.5722 12.6533C9.42041 12.6533 9.27246 12.6346 9.13147 12.5995C8.3399 12.4026 7.7536 11.6874 7.7536 10.8347C7.7536 9.98254 8.3399 9.26733 9.13147 9.0705C9.27246 9.03516 9.42041 9.01666 9.5722 9.01666C10.5764 9.01666 11.3904 9.83057 11.3904 10.8347Z" fill="white"/>
<path d="M16.2506 10.8347C16.2506 11.8392 15.4365 12.6533 14.4326 12.6533C14.2806 12.6533 14.1326 12.6346 13.9916 12.5995C13.2006 12.4026 12.6143 11.6874 12.6143 10.8347C12.6143 9.98254 13.2006 9.26733 13.9916 9.0705C14.1326 9.03516 14.2806 9.01666 14.4326 9.01666C15.4365 9.01666 16.2506 9.83057 16.2506 10.8347V10.8347Z" fill="white"/>
<path d="M10.5088 10.8347C10.5088 11.6874 9.92249 12.4026 9.13147 12.5995C8.3399 12.4026 7.7536 11.6874 7.7536 10.8347C7.7536 9.98254 8.3399 9.26733 9.13147 9.0705C9.92249 9.26733 10.5088 9.98254 10.5088 10.8347Z" fill="#C1DCE5"/>
<path d="M15.369 10.8347C15.369 11.6874 14.7827 12.4026 13.9916 12.5995C13.2006 12.4026 12.6143 11.6874 12.6143 10.8347C12.6143 9.98254 13.2006 9.26733 13.9916 9.0705C14.7827 9.26733 15.369 9.98254 15.369 10.8347Z" fill="#C1DCE5"/>
<path d="M9.57202 12.943C8.40967 12.943 7.46411 11.9973 7.46411 10.8349C7.46411 9.67255 8.40967 8.72699 9.57202 8.72699C10.7344 8.72699 11.6799 9.67255 11.6799 10.8349C11.6799 11.9973 10.7344 12.943 9.57202 12.943ZM9.57202 9.30652C8.72919 9.30652 8.04364 9.99207 8.04364 10.8349C8.04364 11.6777 8.72937 12.3633 9.57202 12.3633C10.4149 12.3633 11.1004 11.6777 11.1004 10.8349C11.1004 9.99225 10.4149 9.30652 9.57202 9.30652Z" fill="#2F373B"/>
<path d="M14.4324 12.943C13.27 12.943 12.3243 11.9973 12.3243 10.8349C12.3243 9.67255 13.27 8.72699 14.4324 8.72699C15.5947 8.72699 16.5403 9.67255 16.5403 10.8349C16.5403 11.9973 15.5947 12.943 14.4324 12.943ZM14.4324 9.30652C13.5895 9.30652 12.904 9.99207 12.904 10.8349C12.904 11.6777 13.5895 12.3633 14.4324 12.3633C15.275 12.3633 15.9608 11.6777 15.9608 10.8349C15.9608 9.99225 15.2752 9.30652 14.4324 9.30652Z" fill="#2F373B"/>
<path d="M11.3903 10.545H12.6141V11.1248H11.3903V10.545Z" fill="#2F373B"/>
<path d="M17.5049 9.59747V10.2268L16.3246 10.7265L16.0988 10.1926L17.5049 9.59747Z" fill="#2F373B"/>
<path d="M7.87958 10.1926L7.65363 10.7265L6.49475 10.2358V9.60681L7.87958 10.1926Z" fill="#2F373B"/>
<path d="M10.5826 10.8351C10.5826 11.1799 10.303 11.4595 9.95819 11.4595C9.61322 11.4595 9.33362 11.1799 9.33362 10.8351C9.33362 10.4901 9.61322 10.2105 9.95819 10.2105C10.303 10.2105 10.5826 10.4901 10.5826 10.8351Z" fill="#2F373B"/>
<path d="M14.6664 10.8351C14.6664 11.1799 14.3868 11.4595 14.0418 11.4595C13.6968 11.4595 13.4172 11.1799 13.4172 10.8351C13.4172 10.4901 13.6968 10.2105 14.0418 10.2105C14.3868 10.2105 14.6664 10.4901 14.6664 10.8351V10.8351Z" fill="#2F373B"/>
<path d="M12.6244 12.6522H11.3754C11.2267 12.6522 11.1061 12.5317 11.1061 12.3829C11.1061 12.234 11.2267 12.1135 11.3754 12.1135H12.6244C12.7733 12.1135 12.8937 12.234 12.8937 12.3829C12.8937 12.5317 12.7733 12.6522 12.6244 12.6522Z" fill="#EAA27F"/>
<path d="M12 14.3566C11.5389 14.3566 11.078 14.2412 10.6578 14.0101C10.5393 13.9449 10.4961 13.7961 10.5611 13.6776C10.6263 13.5591 10.7754 13.5159 10.8938 13.5809C11.5865 13.9618 12.4134 13.9618 13.1061 13.5809C13.2246 13.5157 13.3734 13.559 13.4386 13.6776C13.5038 13.7961 13.4606 13.9449 13.3421 14.0101C12.9219 14.241 12.4608 14.3566 12 14.3566Z" fill="#EAA27F"/>
<path d="M10.4553 10.7249C10.4553 10.8726 10.3356 10.9924 10.1876 10.9924C10.0399 10.9924 9.9201 10.8726 9.9201 10.7249C9.9201 10.5771 10.0399 10.4572 10.1876 10.4572C10.3356 10.4572 10.4553 10.5771 10.4553 10.7249Z" fill="white"/>
<path d="M14.5697 10.7249C14.5697 10.8726 14.4498 10.9924 14.302 10.9924C14.1542 10.9924 14.0345 10.8726 14.0345 10.7249C14.0345 10.5771 14.1542 10.4572 14.302 10.4572C14.4498 10.4572 14.5697 10.5771 14.5697 10.7249Z" fill="white"/>
<path d="M18.0778 7.68073C18.0778 10.5632 17.5052 10.9105 17.5052 10.9105C17.5052 10.9105 16.4614 5.85571 12.0004 5.85571H11.9995C10.5908 5.85571 9.52295 6.3598 8.72113 7.04938C6.98346 8.54388 6.49457 10.9105 6.49457 10.9105C6.49457 10.9105 5.922 10.5632 5.922 7.68073C5.922 4.79828 8.50909 3.29718 11.1423 2.88574C11.3877 2.84692 11.6391 2.82587 11.8943 2.82111C11.9291 2.81982 11.9641 2.81909 11.9995 2.81909H12.0004C12.2919 2.81909 12.5784 2.84161 12.8575 2.88574C15.4907 3.29718 18.0778 4.79828 18.0778 7.68073Z" fill="#2F373B"/>
<path d="M13.7737 2.68304C13.4714 2.60522 13.1649 2.54205 12.8573 2.49408C12.578 2.44995 12.2915 2.42743 12.0002 2.42743H11.9991C11.9639 2.42743 11.9291 2.4278 11.8943 2.42926C11.6391 2.4342 11.3879 2.45526 11.1419 2.49408C10.1222 2.6532 9.10929 2.97601 8.25071 3.47937C7.73307 1.84259 9.03055 0.200684 10.8147 0.0576782C12.6397 0.0924682 13.7541 1.25244 13.7737 2.68304Z" fill="#2F373B"/>
<path d="M13.3989 4.81091C12.5288 5.40948 12.3085 6.60004 12.9071 7.47034C13.5055 8.34045 14.6961 8.56073 15.5664 7.96216" fill="#2F373B"/>
<path d="M8.72113 7.04938C6.98346 8.54388 6.49457 10.9105 6.49457 10.9105C6.49457 10.9105 5.922 10.5632 5.922 7.68073C5.922 4.79828 8.50909 3.29718 11.1423 2.88574C11.3877 2.84692 11.6391 2.82587 11.8943 2.82111C9.7868 2.90021 8.57465 5.35034 8.72113 7.04938Z" fill="#151A1C"/>
</g>
<defs>
<clipPath id="clip0_93_40229">
<rect width="24" height="24" fill="white"/>
</clipPath>
</defs>
</svg>
