<svg width="24" height="24" viewBox="0 0 24 24" fill="none" xmlns="http://www.w3.org/2000/svg">
<g clip-path="url(#clip0_93_40325)">
<path d="M24 12C24 18.6275 18.6275 24 12 24C5.3725 24 0 18.6275 0 12C0 5.3725 5.3725 0 12 0C18.6275 0 24 5.3725 24 12Z" fill="#B9DAED"/>
<path d="M19.1195 13.1678C18.6665 10.1622 15.6156 7.90833 12 7.90833C8.3844 7.90833 5.3335 10.1622 4.88049 13.1678L3.74432 20.7083C5.89526 22.7483 8.80133 24 12 24C15.1987 24 18.1047 22.7483 20.2557 20.7083L19.1195 13.1678Z" fill="#707789"/>
<path d="M20.2557 20.7083L19.1195 13.1678C18.6665 10.1622 15.6156 7.90833 12 7.90833C11.9956 7.90833 11.991 7.90851 11.9866 7.90851V23.9998C11.991 23.9998 11.9954 24 12 24C15.1987 24 18.1047 22.7483 20.2557 20.7083Z" fill="#636978"/>
<path d="M12 24C13.5846 24 15.097 23.6922 16.4821 23.1341L16.1638 19.5242C15.8989 16.5185 14.1145 14.2646 12 14.2646C9.8855 14.2646 8.10114 16.5185 7.83618 19.5242L7.51794 23.1341C8.90295 23.6922 10.4154 24 12 24Z" fill="#AFB4C8"/>
<path d="M16.4821 23.1341L16.1638 19.5242C15.8989 16.5185 14.1145 14.2646 12 14.2646C11.9956 14.2646 11.991 14.2648 11.9866 14.265V23.9998C11.991 23.9998 11.9954 24 12 24C13.5846 24 15.097 23.6922 16.4821 23.1341Z" fill="#9196AA"/>
<path d="M8.52448 8.38605C8.52448 9.74341 7.42419 10.8435 6.06683 10.8435C4.70966 10.8435 3.60938 9.74341 3.60938 8.38605C3.60938 7.02887 4.70966 5.92859 6.06683 5.92859C7.42419 5.92859 8.52448 7.02887 8.52448 8.38605Z" fill="#707789"/>
<path d="M7.34857 8.38605C7.34857 9.09393 6.77472 9.66779 6.06683 9.66779C5.35913 9.66779 4.78528 9.09393 4.78528 8.38605C4.78528 7.67816 5.35913 7.10449 6.06683 7.10449C6.77472 7.10449 7.34857 7.67816 7.34857 8.38605Z" fill="#9196AA"/>
<path d="M20.3906 8.38605C20.3906 9.74341 19.2903 10.8435 17.9332 10.8435C16.5758 10.8435 15.4755 9.74341 15.4755 8.38605C15.4755 7.02887 16.5758 5.92859 17.9332 5.92859C19.2903 5.92859 20.3906 7.02887 20.3906 8.38605Z" fill="#636978"/>
<path d="M19.2147 8.38605C19.2147 9.09393 18.6409 9.66779 17.9332 9.66779C17.2253 9.66779 16.6514 9.09393 16.6514 8.38605C16.6514 7.67816 17.2253 7.10449 17.9332 7.10449C18.6409 7.10449 19.2147 7.67816 19.2147 8.38605Z" fill="#7E8596"/>
<path d="M19.216 12.0156C19.216 16.0007 12 17.4844 12 17.4844C12 17.4844 4.784 16.0007 4.784 12.0156C4.784 8.03027 8.01471 4.79956 12 4.79956C15.9853 4.79956 19.216 8.03027 19.216 12.0156Z" fill="white"/>
<path d="M12 4.79956C11.9954 4.79956 11.991 4.79974 11.9866 4.79974V17.4816C11.9947 17.4833 12 17.4844 12 17.4844C12 17.4844 19.216 16.0007 19.216 12.0156C19.216 8.03027 15.9853 4.79956 12 4.79956Z" fill="#F2F6FC"/>
<path d="M14.3082 12.0156C14.3082 16.0007 12 17.4844 12 17.4844C12 17.4844 9.69177 16.0007 9.69177 12.0156C9.69177 8.03027 10.7252 4.79956 12 4.79956C13.2748 4.79956 14.3082 8.03027 14.3082 12.0156Z" fill="#DCE1EB"/>
<path d="M12 4.79956C11.9954 4.79956 11.991 4.80011 11.9866 4.80011V17.4754C11.9952 17.4813 12 17.4844 12 17.4844C12 17.4844 14.3082 16.0009 14.3082 12.0156C14.3082 8.03027 13.2748 4.79956 12 4.79956Z" fill="#CDD2E1"/>
<path d="M13.112 17.948L12.3937 18.2241C12.1403 18.3217 11.8597 18.3217 11.6063 18.2241L10.888 17.948C10.4645 17.785 10.1849 17.3782 10.1849 16.9243C10.1849 16.3185 10.676 15.8276 11.2817 15.8276H12.7183C13.324 15.8276 13.8151 16.3185 13.8151 16.9243C13.8151 17.378 13.5355 17.785 13.112 17.948Z" fill="#555A66"/>
<path d="M12.7183 15.8276H11.9866V18.2966C12.1245 18.2985 12.2628 18.2747 12.3937 18.2243L13.112 17.948C13.5355 17.785 13.8151 17.3782 13.8151 16.9244C13.8151 16.3185 13.324 15.8276 12.7183 15.8276Z" fill="#333940"/>
<path d="M8.61017 10.8435C8.61017 11.2408 8.28809 11.5629 7.89093 11.5629C7.49359 11.5629 7.17151 11.2408 7.17151 10.8435C7.17151 10.4464 7.49359 10.1243 7.89093 10.1243C8.28809 10.1243 8.61017 10.4464 8.61017 10.8435Z" fill="#555A66"/>
<path d="M16.8285 10.8435C16.8285 11.2408 16.5064 11.5629 16.1091 11.5629C15.7119 11.5629 15.3898 11.2408 15.3898 10.8435C15.3898 10.4464 15.7119 10.1243 16.1091 10.1243C16.5064 10.1243 16.8285 10.4464 16.8285 10.8435Z" fill="#333940"/>
</g>
<defs>
<clipPath id="clip0_93_40325">
<rect width="24" height="24" fill="white"/>
</clipPath>
</defs>
</svg>
