<svg width="16" height="16" viewBox="0 0 16 16" fill="none" xmlns="http://www.w3.org/2000/svg">
<path d="M13 0.5H3C2.86739 0.5 2.74022 0.552678 2.64645 0.646447C2.55268 0.740215 2.5 0.867392 2.5 1V15C2.49968 15.0946 2.52621 15.1874 2.57651 15.2675C2.62682 15.3477 2.69882 15.4119 2.78417 15.4527C2.86952 15.4936 2.96471 15.5094 3.05867 15.4983C3.15264 15.4871 3.24152 15.4496 3.315 15.39L8 11.64L12.69 15.39C12.778 15.4606 12.8872 15.4993 13 15.5C13.0747 15.5012 13.1485 15.4841 13.215 15.45C13.3001 15.4095 13.372 15.3457 13.4224 15.2661C13.4728 15.1865 13.4997 15.0942 13.5 15V1C13.5 0.867392 13.4473 0.740215 13.3536 0.646447C13.2598 0.552678 13.1326 0.5 13 0.5V0.5Z" fill="#3E444F"/>
</svg>
