<svg width="37" height="30" viewBox="0 0 37 30" fill="none" xmlns="http://www.w3.org/2000/svg">
<path d="M7.38681 9.70023V1.37355C7.38681 0.618098 8.00491 0 8.76036 0H29.2761C29.5841 0 29.7684 0.342509 29.5988 0.599522L26.3951 5.45353C26.3534 5.5167 26.3312 5.59077 26.3312 5.66648V18.871C26.3312 19.6264 25.7131 20.2445 24.9576 20.2445H22.6274L7.38681 9.70023Z" fill="#B6D1DE"/>
<path d="M29.2761 0H16.8939V16.2777L22.6274 20.2445H24.9577C25.7131 20.2445 26.3312 19.6264 26.3312 18.871V5.66648C26.3312 5.59077 26.3534 5.5167 26.3951 5.45353L29.5988 0.59958C29.7684 0.342509 29.5841 0 29.2761 0V0Z" fill="#A7CADC"/>
<path d="M21.7596 6.52788H11.417C10.9015 6.52788 10.4836 6.10996 10.4836 5.59447C10.4836 5.07897 10.9015 4.66105 11.417 4.66105H21.7596C22.2751 4.66105 22.6931 5.07897 22.6931 5.59447C22.6931 6.10996 22.2751 6.52788 21.7596 6.52788Z" fill="#DFEBF1"/>
<path d="M21.1467 9.79123H0.723875C0.417288 9.79123 0.232702 10.131 0.399532 10.3882L3.54458 15.2358C3.58524 15.2984 3.60687 15.3715 3.60687 15.4462V28.6288C3.60687 29.383 4.22385 30 4.97801 30H21.1467C21.9008 30 22.5178 29.383 22.5178 28.6288V11.1624C22.5178 10.4082 21.9008 9.79123 21.1467 9.79123V9.79123Z" fill="#FF6F1F"/>
<path d="M21.1467 9.79123H13.0535V30H21.1466C21.9007 30 22.5178 29.383 22.5178 28.6288V11.1624C22.5178 10.4082 21.9008 9.79123 21.1467 9.79123V9.79123Z" fill="#FC4207"/>
<path d="M18.4948 16.2892H8.17039C7.65578 16.2892 7.23862 15.8721 7.23862 15.3575C7.23862 14.8428 7.65578 14.4257 8.17039 14.4257H18.4948C19.0094 14.4257 19.4266 14.8428 19.4266 15.3575C19.4266 15.8721 19.0094 16.2892 18.4948 16.2892Z" fill="white"/>
<path d="M18.4948 21.0214H8.17039C7.65578 21.0214 7.23862 20.6042 7.23862 20.0896C7.23862 19.575 7.65578 19.1579 8.17039 19.1579H18.4948C19.0094 19.1579 19.4266 19.575 19.4266 20.0896C19.4266 20.6042 19.0094 21.0214 18.4948 21.0214Z" fill="white"/>
<path d="M18.4948 14.4257H13.0536V16.2892H18.4948C19.0094 16.2892 19.4266 15.8721 19.4266 15.3575C19.4266 14.8428 19.0094 14.4257 18.4948 14.4257Z" fill="#FFF5F5"/>
<path d="M18.4948 19.1579H13.0536V21.0214H18.4948C19.0094 21.0214 19.4266 20.6042 19.4266 20.0896C19.4266 19.575 19.0094 19.1579 18.4948 19.1579Z" fill="#FFF5F5"/>
<path d="M14.1354 25.7537H8.17039C7.65578 25.7537 7.23862 25.3365 7.23862 24.8219C7.23862 24.3073 7.65578 23.8901 8.17039 23.8901H14.1354C14.65 23.8901 15.0672 24.3073 15.0672 24.8219C15.0672 25.3365 14.65 25.7537 14.1354 25.7537Z" fill="white"/>
<path d="M14.1354 23.8901H13.0536V25.7537H14.1354C14.65 25.7537 15.0672 25.3365 15.0672 24.8219C15.0672 24.3073 14.65 23.8901 14.1354 23.8901V23.8901Z" fill="#FFF5F5"/>
<path d="M36.1266 13.1176C36.017 13.3028 35.6508 13.679 33.1969 16.1006C31.7748 17.504 29.6514 19.5952 26.4709 22.7346C26.318 22.8864 26.6637 22.7012 21.2531 25.226C20.5061 25.5758 19.7408 24.7948 20.0848 24.0577C22.6137 18.6395 22.4238 18.9911 22.5803 18.8364C25.7502 15.6665 27.8561 13.5594 29.2559 12.1596C31.9764 9.43794 32.0297 9.38637 32.0362 9.3934C32.741 8.82387 33.7541 8.88012 34.3881 9.51411C35.976 11.102 35.8992 11.0194 35.976 11.1149C36.426 11.6633 36.5086 12.4655 36.1266 13.1176V13.1176Z" fill="#FFE278"/>
<path d="M36.1266 13.1176C35.9538 13.41 35.1393 14.1787 26.4709 22.7346C26.318 22.8864 26.6637 22.7012 21.2532 25.226C21.1342 25.2817 21.0071 25.3086 20.8817 25.3086C20.6385 25.3086 20.4264 25.2131 20.2717 25.0625L35.1047 10.2301C35.952 11.0768 35.9127 11.0364 35.976 11.1149C36.426 11.6633 36.5086 12.4655 36.1266 13.1176Z" fill="#FFB454"/>
<path d="M36.1266 13.1176C36.017 13.3028 35.6508 13.679 33.1969 16.1006L33.1922 16.0965L31.2152 14.1196L29.2559 12.1608V12.1596C31.9764 9.43794 32.0297 9.38637 32.0361 9.3934C32.741 8.82387 33.7541 8.88012 34.3881 9.51411C34.6793 9.80532 34.9143 10.0403 35.1047 10.2301C35.9531 11.078 35.9133 11.037 35.976 11.1149C36.426 11.6633 36.5086 12.4655 36.1266 13.1176V13.1176Z" fill="#DD5958"/>
<path d="M36.1265 13.1176C36.017 13.3028 35.6508 13.6789 33.1968 16.1006L33.1922 16.0965L31.2152 14.1196L35.1047 10.2301C35.9531 11.078 35.9133 11.0369 35.976 11.1149C36.426 11.6633 36.5086 12.4655 36.1265 13.1176Z" fill="#D8225B"/>
</svg>
