<svg width="16" height="16" viewBox="0 0 16 16" fill="none" xmlns="http://www.w3.org/2000/svg">
<g clip-path="url(#clip0_93_47697)">
<path d="M11 7C11.5523 7 12 7.4477 12 8C12 8.5523 11.5523 9 11 9C10.4477 9 10 8.5523 10 8C10 7.4477 10.4477 7 11 7Z" fill="#3C4149"/>
<path d="M9 8C9 7.4477 8.5523 7 8 7C7.4477 7 7 7.4477 7 8C7 8.5523 7.4477 9 8 9C8.5523 9 9 8.5523 9 8Z" fill="#3C4149"/>
<path d="M5 7C5.5523 7 6 7.4477 6 8C6 8.5523 5.5523 9 5 9C4.4477 9 4 8.5523 4 8C4 7.4477 4.4477 7 5 7Z" fill="#3C4149"/>
<path fill-rule="evenodd" clip-rule="evenodd" d="M8 1C12.3487 1 16 4.06923 16 8C16 9.4678 15.4841 10.825 14.6127 11.9426L15.8694 14.7073C15.9556 14.8971 15.9151 15.1204 15.7678 15.2677C15.6204 15.4151 15.397 15.4557 15.2073 15.3694L12.1569 13.9829C10.9428 14.6297 9.5188 15 8 15C3.6513 15 0 11.9307 0 8C0 4.06923 3.6513 1 8 1ZM15 8C15 4.75107 11.9356 2 8 2C4.06445 2 1 4.75107 1 8C1 11.249 4.06445 14 8 14C9.44185 14 10.7774 13.6262 11.8862 12.99C12.0258 12.9099 12.1954 12.9019 12.3419 12.9685L14.4073 13.9073L13.5739 12.0738C13.4935 11.897 13.5228 11.6895 13.6491 11.5419C14.5035 10.543 15 9.31815 15 8V8Z" fill="#3C4149"/>
</g>
<defs>
<clipPath id="clip0_93_47697">
<rect width="16" height="16" fill="white"/>
</clipPath>
</defs>
</svg>
