<svg width="16" height="16" viewBox="0 0 16 16" fill="none" xmlns="http://www.w3.org/2000/svg">
<path fill-rule="evenodd" clip-rule="evenodd" d="M6.05579 14.4762C6.23255 15.3451 7.00169 16 7.92246 16C8.84322 16 9.61236 15.3451 9.78912 14.4762H6.05579ZM6.70303 2.43695C6.51179 2.18248 6.39865 1.86629 6.39865 1.52381C6.39865 0.682667 7.08131 0 7.92246 0C8.7636 0 9.44627 0.682667 9.44627 1.52381C9.44627 1.86667 9.33274 2.18324 9.14112 2.43809C9.99788 2.65562 10.7887 3.10058 11.4242 3.73639C12.3529 4.66515 12.8748 5.92457 12.8748 7.2381V9.78514C12.8748 10.6945 13.236 11.5665 13.879 12.2095L14.7335 13.064C14.8425 13.173 14.8748 13.3368 14.8158 13.4792C14.7571 13.6213 14.6181 13.7143 14.4642 13.7143H1.38074C1.22684 13.7143 1.08779 13.6213 1.02912 13.4792C0.970075 13.3368 1.00246 13.173 1.11141 13.064L1.96588 12.2095C2.60893 11.5665 2.97008 10.6945 2.97008 9.78514C2.97008 8.67619 2.97008 7.2381 2.97008 7.2381C2.97008 4.92381 4.5575 2.98057 6.70303 2.43695V2.43695ZM7.92246 0.761905C8.34303 0.761905 8.68436 1.10324 8.68436 1.52381C8.68436 1.94438 8.34303 2.28571 7.92246 2.28571C7.50188 2.28571 7.16055 1.94438 7.16055 1.52381C7.16055 1.10324 7.50188 0.761905 7.92246 0.761905Z" fill="#3E444F"/>
</svg>
