<svg width="120" height="36" viewBox="0 0 120 36" fill="none" xmlns="http://www.w3.org/2000/svg">
<path d="M24.722 28.1888C25.616 26.0963 26.1096 23.7909 26.1096 21.3716C26.1096 21.0104 26.0976 20.6506 26.0766 20.2954V0.600849C26.0766 0.0672274 25.43 -0.201083 25.052 0.17665L18.7369 6.48718C18.6244 6.5996 18.5614 6.75249 18.5614 6.91138V21.3357C18.5614 21.3477 18.5614 21.3611 18.5614 21.3731C18.5614 26.8143 14.1468 31.2257 8.70015 31.2257C6.7831 31.2257 4.99356 30.6785 3.48002 29.7327C2.91601 29.3805 2.28 30.058 2.673 30.5931C3.15152 31.2451 3.69303 31.8552 4.29154 32.4143C11.0282 38.3456 21.0034 36.8991 24.7205 28.1888H24.722Z" fill="#FC5F07"/>
<path d="M6.34661 29.5933C6.55812 29.7237 6.82362 29.5378 6.77562 29.2935C6.77562 27.6027 6.60012 25.6286 6.60612 24.4235C6.61512 22.7761 6.62712 21.1288 6.62712 19.4815C6.62712 18.4622 6.88063 17.8311 7.78515 17.3095C9.26268 16.4566 10.7327 15.5932 12.2043 14.7343C13.2468 14.1258 14.9913 12.9671 16.5139 12.4455C16.7494 12.3645 16.7794 12.0467 16.5649 11.9223C15.2838 11.1819 14.0028 10.4399 12.7188 9.7039C10.5812 8.47777 9.73219 8.47027 7.57064 9.79383C5.7196 10.8701 3.87306 11.9553 2.01901 13.024C0.661481 13.8065 0.0329659 14.7059 0.0284658 16.3037C0.0209656 18.4982 0.0149655 20.6911 0.00596527 22.8916C-0.0675365 25.6976 0.541478 26.2792 2.88303 27.6027C4.03656 28.2548 5.18259 28.9263 6.34061 29.5903C6.34211 29.5903 6.34511 29.5933 6.34661 29.5933Z" fill="#FC5F07"/>
<path d="M38.3333 29.8125V10.125H45.7159C47.7857 10.125 49.5742 10.5193 51.0812 11.3079C52.5978 12.0874 53.7567 13.2159 54.5579 14.6934C55.3591 16.1618 55.7597 17.9112 55.7597 19.9416C55.7597 21.981 55.3544 23.744 54.5436 25.2305C53.7424 26.708 52.5787 27.841 51.0526 28.6296C49.536 29.4182 47.7285 29.8125 45.6301 29.8125H38.3333ZM45.4584 26.3046C47.4614 26.3046 48.9637 25.788 49.9652 24.7547C50.9667 23.7213 51.4675 22.117 51.4675 19.9416C51.4675 17.7843 50.9667 16.1935 49.9652 15.1692C48.9733 14.145 47.4805 13.6329 45.487 13.6329H42.6255V26.3046H45.4584Z" fill="black"/>
<path d="M56.8471 10.125H61.5399L65.0309 23.8845H65.2026L69.0084 10.125H73.0431L76.8488 23.9117H77.0205L80.5115 10.125H85.2044L79.2811 29.8125H75.0747L71.1259 16.8144H70.9542L66.9767 29.8125H62.7704L56.8471 10.125Z" fill="black"/>
<path d="M84.1456 29.8125L91.3279 10.125H96.8506L104.004 29.8125H99.3973L97.8378 25.2713H90.3407L88.7812 29.8125H84.1456ZM96.7504 22.0898L94.1608 14.5574H94.0177L91.4281 22.0898H96.7504Z" fill="black"/>
<path d="M106.351 10.125H120V13.4969H110.643V18.2828H119.113V21.6547H110.643V29.8125H106.351V10.125Z" fill="black"/>
</svg>
