<svg width="16" height="16" viewBox="0 0 16 16" fill="none" xmlns="http://www.w3.org/2000/svg">
<g opacity="0.7" clip-path="url(#clip0_93_49684)">
<path d="M6.22857 8.57713H2.85714C2.53714 8.57713 2.28571 8.32571 2.28571 8.00571C2.28571 7.69142 2.53714 7.43428 2.85714 7.43428H5.55429C5.39429 7.09142 5.26857 6.73142 5.17714 6.35428H2.85714C2.53714 6.35428 2.28571 6.09713 2.28571 5.78285C2.28571 5.46856 2.53714 5.21142 2.85714 5.21142H5.01143C5.00571 5.11428 5.00571 5.02285 5.00571 4.92571C5.00571 4.24571 5.12 3.59428 5.32571 2.98285H2.05714C0.92 2.98285 0 3.90856 0 5.03999V10.9714C0 12.0286 0.805714 12.9086 1.84 13.0114V14.2171C1.84 14.5543 2.02857 14.8514 2.33143 15C2.45143 15.0571 2.58286 15.0857 2.70857 15.0857C2.90286 15.0857 3.09143 15.0229 3.24571 14.8971L4.53143 13.8857C5.22857 13.3314 6.10857 13.0228 7.00571 13.0228H10.96C12.0914 13.0228 13.0171 12.1028 13.0171 10.9714V10.6743C12.4057 10.88 11.7543 10.9943 11.0743 10.9943C9.09714 10.9943 7.33714 10.0457 6.22857 8.57713ZM6.50857 10.8057H2.85714C2.53714 10.8057 2.28571 10.5486 2.28571 10.2343C2.28571 9.91999 2.53714 9.66285 2.85714 9.66285H6.50857C6.82286 9.66285 7.08 9.91999 7.08 10.2343C7.08 10.5486 6.82286 10.8057 6.50857 10.8057Z" fill="#A7B8CF"/>
<path d="M11.0743 0C8.3543 0 6.14859 2.21143 6.14859 4.92571C6.14859 7.64571 8.3543 9.85143 11.0743 9.85143C13.7886 9.85143 16 7.64571 16 4.92571C16 2.21143 13.7886 0 11.0743 0ZM11.0686 8.09714C10.7543 8.09714 10.4972 7.84 10.4972 7.52571C10.4972 7.21143 10.7486 6.95429 11.0629 6.95429H11.0686C11.3829 6.95429 11.64 7.21143 11.64 7.52571C11.64 7.84 11.3829 8.09714 11.0686 8.09714ZM11.6457 5.45714V5.80571C11.6457 6.12 11.3886 6.37714 11.0743 6.37714C10.76 6.37714 10.5029 6.12 10.5029 5.80571V4.99429C10.5029 4.68 10.76 4.42286 11.0743 4.42286C11.3429 4.42286 11.5657 4.20571 11.5657 3.93143C11.5657 3.66286 11.3429 3.44571 11.0743 3.44571C10.8057 3.44571 10.5829 3.66286 10.5829 3.93143C10.5829 4.25143 10.3257 4.50286 10.0114 4.50286C9.69716 4.50286 9.44002 4.25143 9.44002 3.93143C9.44002 3.03429 10.1714 2.30286 11.0743 2.30286C11.9714 2.30286 12.7086 3.03429 12.7086 3.93143C12.7086 4.63429 12.2629 5.22286 11.6457 5.45714Z" fill="#A7B8CF"/>
</g>
<defs>
<clipPath id="clip0_93_49684">
<rect width="16" height="16" fill="white"/>
</clipPath>
</defs>
</svg>
