<svg width="16" height="16" viewBox="0 0 16 16" fill="none" xmlns="http://www.w3.org/2000/svg">
<g opacity="0.7">
<path d="M2.44752 1.88818C2.44709 1.88818 2.4466 1.88818 2.44617 1.88818C2.29484 1.88818 2.15251 1.94717 2.04504 2.05438C1.93638 2.16277 1.87653 2.30709 1.87653 2.46074V11.0461C1.87653 11.3609 2.13366 11.6177 2.44978 11.6185C3.78247 11.6217 6.01526 11.8994 7.55558 13.5113V4.52652C7.55558 4.4198 7.52832 4.31955 7.47687 4.23658C6.21265 2.20064 3.78323 1.89131 2.44752 1.88818Z" fill="#A7B8CF"/>
<path d="M14.1235 11.0461V2.46068C14.1235 2.30703 14.0637 2.16271 13.955 2.05432C13.8475 1.94711 13.7051 1.88812 13.5539 1.88812C13.5534 1.88812 13.553 1.88812 13.5525 1.88812C12.2169 1.8913 9.78745 2.20064 8.52317 4.23657C8.47172 4.31954 8.44452 4.41979 8.44452 4.52652V13.5113C9.98483 11.8994 12.2176 11.6216 13.5503 11.6184C13.8664 11.6176 14.1235 11.3609 14.1235 11.0461Z" fill="#A7B8CF"/>
<path d="M15.4276 3.8681H15.0124V11.0461C15.0124 11.8499 14.3575 12.5054 13.5524 12.5074C12.422 12.5101 10.5582 12.7311 9.23813 13.9805C11.5211 13.4215 13.9278 13.7849 15.2994 14.0974C15.4707 14.1364 15.6476 14.0961 15.7848 13.9868C15.9216 13.8777 16 13.7146 16 13.5396V4.44055C16.0001 4.12491 15.7432 3.8681 15.4276 3.8681Z" fill="#A7B8CF"/>
<path d="M0.987586 11.0461V3.8681H0.572446C0.256863 3.8681 0 4.12491 0 4.44055V13.5394C0 13.7145 0.078438 13.8775 0.215166 13.9866C0.352271 14.0959 0.529079 14.1364 0.700608 14.0973C2.0722 13.7846 4.47894 13.4213 6.76183 13.9803C5.44185 12.731 3.57798 12.51 2.44758 12.5073C1.64256 12.5054 0.987586 11.8499 0.987586 11.0461Z" fill="#A7B8CF"/>
</g>
</svg>
