<svg width="16" height="16" viewBox="0 0 16 16" fill="none" xmlns="http://www.w3.org/2000/svg">
<g opacity="0.7" clip-path="url(#clip0_93_49700)">
<path d="M11.0634 0.988159H1.80938C0.811563 0.988159 0 1.79972 0 2.79753V10.9069C0 11.291 0.434344 11.5075 0.740937 11.2885L3.31813 9.44972C3.53437 9.29566 3.78875 9.2141 4.05438 9.2141H9.72281C10.7206 9.2141 11.5322 8.40253 11.5322 7.40472V1.45691C11.5322 1.19816 11.3222 0.988159 11.0634 0.988159ZM8.78656 6.6666H3.37063C3.11188 6.6666 2.90188 6.45691 2.90188 6.19785C2.90188 5.9391 3.11188 5.7291 3.37063 5.7291H8.78656C9.04531 5.7291 9.25531 5.9391 9.25531 6.19785C9.25531 6.45691 9.04531 6.6666 8.78656 6.6666ZM8.78656 4.4791H3.37063C3.11188 4.4791 2.90188 4.26941 2.90188 4.01035C2.90188 3.7516 3.11188 3.5416 3.37063 3.5416H8.78656C9.04531 3.5416 9.25531 3.7516 9.25531 4.01035C9.25531 4.26941 9.04531 4.4791 8.78656 4.4791Z" fill="#A7B8CF"/>
<path d="M16 6.43347V14.5425C16 14.924 15.5679 15.1447 15.2591 14.9241L12.6819 13.0857C12.4656 12.9316 12.2113 12.85 11.9456 12.85H6.27719C5.27938 12.85 4.46782 12.0382 4.46782 11.0403V10.1516H9.72282C11.2375 10.1516 12.4697 8.9194 12.4697 7.40472V4.62378H14.1906C15.1884 4.62378 16 5.43565 16 6.43347Z" fill="#A7B8CF"/>
</g>
<defs>
<clipPath id="clip0_93_49700">
<rect width="16" height="16" fill="white"/>
</clipPath>
</defs>
</svg>
