<svg width="14" height="14" viewBox="0 0 14 14" fill="none" xmlns="http://www.w3.org/2000/svg">
<path d="M13.0861 6.01563L10.3609 8.67213L11.0044 12.4241C11.0324 12.5882 10.9651 12.754 10.8303 12.852C10.7542 12.9076 10.6636 12.9356 10.5731 12.9356C10.5035 12.9356 10.4335 12.9189 10.3696 12.8853L7.00001 11.1138L3.63082 12.8848C3.48382 12.9627 3.30488 12.95 3.17013 12.8516C3.03538 12.7536 2.96801 12.5878 2.99601 12.4237L3.63957 8.6717L0.913945 6.01563C0.794945 5.89926 0.751633 5.72513 0.803258 5.5672C0.854883 5.40926 0.99182 5.29332 1.15676 5.26926L4.9232 4.72238L6.60757 1.30901C6.75501 1.0102 7.24501 1.0102 7.39245 1.30901L9.07682 4.72238L12.8433 5.26926C13.0082 5.29332 13.1451 5.40882 13.1968 5.5672C13.2484 5.72557 13.2051 5.89882 13.0861 6.01563Z" fill="#CCD2DD"/>
</svg>
